<svg version="1.1" id="Layer_1" xmlns="http://www.w3.org/2000/svg" xmlns:xlink="http://www.w3.org/1999/xlink" x="0px" y="0px"
	 width="100%" viewBox="0 0 300 300" enable-background="new 0 0 300 300" xml:space="preserve">
<path fill="#FEFEFE" opacity="1.000000" stroke="none" 
	d="
M1.000000,110.000000 
	C1.000000,73.348404 1.000000,37.196804 1.000000,1.022603 
	C100.943260,1.022603 200.886536,1.022603 300.914917,1.022603 
	C300.914917,100.901535 300.914917,200.803177 300.914917,300.852417 
	C201.000168,300.852417 101.000107,300.852417 1.000000,300.852417 
	C1.000000,237.446915 1.000000,173.973465 1.000000,110.000000 
M132.873825,14.125754 
	C126.676537,15.433720 120.479248,16.741684 113.106705,18.297693 
	C117.908791,19.984344 120.983955,21.064447 123.351952,22.526718 
	C92.233910,25.381046 66.392914,38.063953 46.187450,62.413223 
	C6.512265,110.225143 3.724583,178.875366 41.239372,228.488190 
	C75.156799,273.343536 121.057327,291.507660 176.247543,281.385529 
	C231.290314,271.290436 275.231110,225.785538 283.290314,170.346619 
	C289.340515,128.727554 279.207611,91.801208 251.482315,59.930866 
	C230.333298,35.619976 203.711990,20.688566 172.047577,15.702695 
	C159.525009,13.730895 146.544037,14.670443 132.873825,14.125754 
z"/>
<path fill="#3D3A35" opacity="1.000000" stroke="none" 
	d="
M133.771790,14.284384 
	C146.544037,14.670443 159.525009,13.730895 172.047577,15.702695 
	C203.711990,20.688566 230.333298,35.619976 251.482315,59.930866 
	C279.207611,91.801208 289.340515,128.727554 283.290314,170.346619 
	C275.231110,225.785538 231.290314,271.290436 176.247543,281.385529 
	C121.057327,291.507660 75.156799,273.343536 41.239372,228.488190 
	C3.724583,178.875366 6.512265,110.225143 46.187450,62.413223 
	C66.392914,38.063953 92.233910,25.381046 124.162811,22.420666 
	C129.925171,22.369324 134.889328,22.216438 139.825821,22.517328 
	C155.171844,23.452700 169.646271,27.782854 183.769501,34.425312 
	C184.996399,35.095749 186.012756,35.504650 187.249313,36.175022 
	C218.127747,54.579628 237.028183,81.104660 244.135651,116.314407 
	C244.333084,117.421173 244.583008,118.212776 244.786316,119.464767 
	C247.200165,141.302628 244.634857,161.909393 235.639160,181.406403 
	C233.782791,175.871674 232.556702,170.072235 229.991180,164.942734 
	C219.566360,144.099487 194.790604,133.798920 173.414429,141.002487 
	C150.729156,148.647232 137.391312,170.918610 142.058823,194.493927 
	C145.491257,211.831100 155.954315,224.039032 172.667953,229.648987 
	C189.320007,235.238281 205.577362,232.995651 217.891708,219.891922 
	C225.961334,211.305038 232.592850,200.981888 238.187881,190.536209 
	C249.084763,170.192184 253.947128,148.260574 251.432495,124.689606 
	C251.266861,123.038719 250.974930,121.716156 250.768921,119.987320 
	C248.510208,101.975204 242.464920,85.712540 232.796341,70.848839 
	C221.423859,53.365688 206.836136,39.328354 187.768372,29.719097 
	C171.350937,20.960299 154.016602,16.908943 135.862274,15.919851 
	C135.137894,15.880385 134.467392,14.851998 133.771790,14.284384 
z"/>
<path fill="#FEFFFE" opacity="1.000000" stroke="none" 
	d="
M133.322815,14.205069 
	C134.467392,14.851998 135.137894,15.880385 135.862274,15.919851 
	C154.016602,16.908943 171.350937,20.960299 187.734833,30.066526 
	C187.626923,31.782124 187.312943,32.892296 186.568756,34.004120 
	C185.278671,34.058437 184.418808,34.111103 183.558960,34.163773 
	C169.646271,27.782854 155.171844,23.452700 139.825821,22.517328 
	C134.889328,22.216438 129.925171,22.369324 124.516403,22.229582 
	C120.983955,21.064447 117.908791,19.984344 113.106705,18.297693 
	C120.479248,16.741684 126.676537,15.433720 133.322815,14.205069 
z"/>
<path fill="#FEFEFE" opacity="1.000000" stroke="none" 
	d="
M186.998962,34.002464 
	C187.312943,32.892296 187.626923,31.782124 187.974442,30.324524 
	C206.836136,39.328354 221.423859,53.365688 232.796341,70.848839 
	C242.464920,85.712540 248.510208,101.975204 250.493378,120.285477 
	C249.233582,122.708580 247.754471,124.596565 251.306198,125.017929 
	C253.947128,148.260574 249.084763,170.192184 238.187881,190.536209 
	C232.592850,200.981888 225.961334,211.305038 217.891708,219.891922 
	C205.577362,232.995651 189.320007,235.238281 172.667953,229.648987 
	C155.954315,224.039032 145.491257,211.831100 142.058823,194.493927 
	C137.391312,170.918610 150.729156,148.647232 173.414429,141.002487 
	C194.790604,133.798920 219.566360,144.099487 229.991180,164.942734 
	C232.556702,170.072235 233.782791,175.871674 235.639160,181.406403 
	C244.634857,161.909393 247.200165,141.302628 245.135681,119.421280 
	C245.955994,118.375114 246.380341,117.832802 246.804688,117.290489 
	C245.932495,116.860077 245.060318,116.429665 244.188126,115.999252 
	C237.028183,81.104660 218.127747,54.579628 187.242889,35.856506 
	C187.010513,34.851833 187.004730,34.427151 186.998962,34.002464 
z"/>
<path fill="#FEFFFE" opacity="1.000000" stroke="none" 
	d="
M251.432495,124.689606 
	C247.754471,124.596565 249.233582,122.708580 250.407471,120.691750 
	C250.974930,121.716156 251.266861,123.038719 251.432495,124.689606 
z"/>
<path fill="#FEFFFE" opacity="1.000000" stroke="none" 
	d="
M244.135651,116.314407 
	C245.060318,116.429665 245.932495,116.860077 246.804688,117.290489 
	C246.380341,117.832802 245.955994,118.375114 245.182281,118.960907 
	C244.583008,118.212776 244.333084,117.421173 244.135651,116.314407 
z"/>
<path fill="#F6F6F4" opacity="1.000000" stroke="none" 
	d="
M186.568726,34.004116 
	C187.004730,34.427151 187.010513,34.851833 187.022705,35.595036 
	C186.012756,35.504650 184.996399,35.095749 183.769501,34.425308 
	C184.418808,34.111103 185.278671,34.058437 186.568726,34.004116 
z"/>
</svg>